Motion_pl03
version=1
nRows=12
nColumns=43
inDegrees=yes
endheader
time	pelvis_tilt	pelvis_list	pelvis_rotation	pelvis_tx	pelvis_ty	pelvis_tz	hip_flexion_r	hip_adduction_r	hip_rotation_r	knee_angle_r	ankle_angle_r	subtalar_angle_r	mtp_angle_r	hip_flexion_l	hip_adduction_l	hip_rotation_l	knee_angle_l	ankle_angle_l	subtalar_angle_l	mtp_angle_l	lumbar_extension	lumbar_bending	lumbar_rotation	neck_flexion	neck_lateral_bending	neck_rotation	arm_flex_r	arm_add_r	arm_rot_r	elbow_flex_r	pro_sup_r	wrist_flex_r	wrist_dev_r	hand_finger_flex_r	arm_flex_l	arm_add_l	arm_rot_l	elbow_flex_l	pro_sup_l	wrist_flex_l	wrist_dev_l	hand_finger_flex_l
      0.00250000	     -1.85636287	     -2.49984958	     92.77798952	      0.01657304	      1.87179606	      1.94110674	     63.07282521	     -7.57908427	      5.24787588	   -114.27678732	     28.10662488	    -13.80951940	     -4.66078747	     62.53855089	     -1.78041900	      4.28157895	   -114.56102331	     32.57528495	     -0.82983569	      5.95975491	    -56.40139842	     -0.61864050	     -2.43757550	     23.55206876	     -0.79746638	     -2.77291062	     10.92455644	    -21.05977130	     -5.09566537	     50.99270433	     83.45229879	    -27.64253171	      5.98634381	     32.02849906	     11.64926727	    -16.79151834	    -18.65799829	     64.73270755	    114.12684238	     -9.23292585	     19.06967642	     60.98979151
      0.00500000	     -1.85781108	     -2.47672580	     92.78464806	      0.01665895	      1.87072418	      1.94119989	     63.17930950	     -7.58450060	      5.28019783	   -114.46536140	     28.14733142	    -13.83265714	     -4.65586136	     62.64206497	     -1.79602862	      4.30065534	   -114.75947282	     32.60489359	     -0.84832688	      5.96357801	    -56.54002807	     -0.60661327	     -2.43182696	     23.54904648	     -0.80523630	     -2.75331866	     11.25738519	    -21.06813183	     -5.09638048	     51.10479020	     83.45026556	    -27.64237981	      5.94923322	     32.01854817	     12.03799129	    -16.79574351	    -18.65708633	     64.86817179	    114.10855617	     -9.25062280	     19.03471671	     60.98780209
      0.00750000	     -1.85145080	     -2.56361986	     92.76125393	      0.01660943	      1.86968751	      1.94127346	     63.38045918	     -7.54882736	      5.33381483	   -114.62591096	     28.22027401	    -13.83825772	     -4.65296999	     62.84292614	     -1.76320944	      4.33360880	   -114.93546461	     32.59023030	     -0.88575019	      5.96262280	    -56.61630545	     -0.60653961	     -2.32486660	     24.01198355	     -0.78824055	     -2.67895135	     11.72534279	    -21.16502737	     -4.99287043	     50.87864853	     83.41959521	    -27.70991633	      5.92622993	     31.91588134	     12.63074845	    -16.69237395	    -18.66179113	     64.70223553	    113.94472285	     -9.33185375	     19.01104477	     61.02106813
      0.01000000	     -1.82375143	     -2.65400609	     92.76575168	      0.01665640	      1.86856280	      1.94137469	     63.59351383	     -7.51762674	      5.35667314	   -114.80043524	     28.23539797	    -13.79482818	     -4.65703566	     63.07294637	     -1.77275817	      4.37062390	   -115.11718026	     32.57534980	     -0.91333291	      5.96820310	    -56.66312393	     -0.57840956	     -2.26851319	     24.25264946	     -0.80661321	     -2.68958564	     12.16391447	    -21.22667191	     -4.86043756	     50.76347111	     83.36866327	    -27.81004908	      5.88308224	     31.77944782	     13.15229292	    -16.65142124	    -18.65352043	     64.60054719	    113.66924271	     -9.46207992	     18.97349241	     61.10533533
      0.01250000	     -1.82566319	     -2.64527516	     92.78674903	      0.01668920	      1.86721529	      1.94132008	     63.72983186	     -7.50895724	      5.40047336	   -115.07560141	     28.26721299	    -13.79471985	     -4.65321108	     63.21204938	     -1.75998531	      4.42292747	   -115.37221503	     32.60237595	     -0.92373617	      5.97763501	    -56.74782537	     -0.55152157	     -2.23610064	     24.38931271	     -0.82832809	     -2.69182716	     12.51531405	    -21.24976486	     -4.82222357	     50.72649585	     83.34614770	    -27.85791076	      5.87851436	     31.72125748	     13.57632371	    -16.62102979	    -18.62482687	     64.60548813	    113.55381829	     -9.52236111	     18.95142712	     61.14175359
      0.01500000	     -1.80061490	     -2.73042393	     92.80506888	      0.01662061	      1.86625187	      1.94137639	     63.91770469	     -7.52372950	      5.41873402	   -115.23135061	     28.29180219	    -13.75453990	     -4.64887897	     63.41584082	     -1.74423320	      4.45625760	   -115.54400684	     32.62720033	     -0.91393907	      5.99141796	    -56.82533413	     -0.50500170	     -2.19909813	     24.65924917	     -0.84815669	     -2.70486772	     13.00968483	    -21.28155420	     -4.76578447	     50.61240637	     83.30819640	    -27.94286424	      5.91609999	     31.63777307	     14.14792032	    -16.56342167	    -18.55895170	     64.46858639	    113.39442071	     -9.58851248	     18.95762620	     61.20840349
      0.01750000	     -1.67681598	     -3.00879248	     92.88748344	      0.01647713	      1.86453134	      1.94158967	     64.36129783	     -7.55034447	      5.32145904	   -115.44496483	     28.34220605	    -13.51878299	     -4.63217857	     63.93550698	     -1.71746389	      4.64185873	   -115.79697579	     32.57830586	     -0.83882958	      6.05982604	    -56.59979148	     -0.33108330	     -2.09622906	     24.63726844	     -0.95738650	     -2.82299126	     13.39188715	    -21.41989264	     -4.48427028	     50.62353427	     82.93824041	    -28.36817049	      6.07933056	     31.32365069	     14.70434238	    -16.61635460	    -18.23197799	     64.15032230	    112.60344701	     -9.83344782	     19.10308706	     61.88902298
      0.02000000	     -1.67741656	     -3.01665101	     92.89729525	      0.01643282	      1.86345775	      1.94154154	     64.47571638	     -7.54963360	      5.36648794	   -115.65171716	     28.38676888	    -13.54431564	     -4.62457402	     64.05737197	     -1.69941398	      4.66425488	   -116.00673238	     32.63460532	     -0.84236721	      6.07710832	    -56.73101220	     -0.30821564	     -2.07591554	     24.92010215	     -0.95776084	     -2.79390306	     13.83840270	    -21.42374078	     -4.49970517	     50.55887739	     82.88824248	    -28.40254859	      6.10302784	     31.29926207	     15.19216650	    -16.56512060	    -18.15664741	     64.12516929	    112.59869177	     -9.88649282	     19.11084633	     61.93537342
      0.02250000	     -1.67384085	     -3.06434209	     92.90239267	      0.01639761	      1.86248510	      1.94159709	     64.62944866	     -7.55735453	      5.38851633	   -115.80892022	     28.41324133	    -13.52750411	     -4.61662106	     64.21052243	     -1.68510908	      4.68233312	   -116.16934616	     32.67599894	     -0.82902795	      6.09588351	    -56.83760281	     -0.28230997	     -2.05599812	     25.20757815	     -0.95937166	     -2.77854544	     14.34549348	    -21.42437056	     -4.49312978	     50.46291478	     82.82362385	    -28.46025367	      6.16766103	     31.27345086	     15.74445610	    -16.54987528	    -18.01861117	     64.01305227	    112.61012002	     -9.89752434	     19.15685354	     62.02276540
      0.02500000	     -1.67402125	     -3.11363281	     92.90627105	      0.01637327	      1.86138462	      1.94164121	     64.79938161	     -7.55892848	      5.42807264	   -115.99639202	     28.43876350	    -13.49394510	     -4.60655025	     64.38069172	     -1.66711418	      4.71046635	   -116.35848780	     32.70926967	     -0.80684192	      6.11593119	    -56.91736540	     -0.26559901	     -2.02600802	     25.43383985	     -0.96154476	     -2.77815846	     14.83116617	    -21.43730548	     -4.47192426	     50.36903419	     82.75128735	    -28.53574166	      6.25252077	     31.25159477	     16.28141251	    -16.55179850	    -17.82481913	     63.91649387	    112.63016050	     -9.86625497	     19.22045193	     62.14674205
      0.02750000	     -1.68240583	     -3.17545594	     92.90542933	      0.01640277	      1.86023291	      1.94169468	     64.98687430	     -7.54912943	      5.48026969	   -116.19544170	     28.46587353	    -13.45051778	     -4.59447362	     64.56906764	     -1.65604150	      4.73275077	   -116.55058059	     32.74176226	     -0.77656503	      6.13758798	    -56.97984544	     -0.26484136	     -1.99275949	     25.64084362	     -0.95673247	     -2.79197032	     15.30978193	    -21.45403943	     -4.43809916	     50.27817603	     82.67360675	    -28.62458818	      6.34785931	     31.23335661	     16.81933735	    -16.58036990	    -17.59001325	     63.83100932	    112.65674205	     -9.81015255	     19.29366728	     62.29158786
      0.03000000	     -1.69851036	     -3.24798165	     92.89277736	      0.01647164	      1.85903850	      1.94176224	     65.19941610	     -7.52908729	      5.55205064	   -116.40126859	     28.49202525	    -13.40126899	     -4.58090450	     64.76633380	     -1.64906937	      4.74504903	   -116.74487717	     32.77428521	     -0.73537012	      6.16143128	    -57.02692866	     -0.28795978	     -1.94967270	     25.83693181	     -0.94459400	     -2.81818236	     15.78705606	    -21.47571387	     -4.39108588	     50.18661198	     82.58984401	    -28.72581492	      6.44919541	     31.21760284	     17.35818930	    -16.63188841	    -17.31408667	     63.76325059	    112.68352338	     -9.74268000	     19.37179384	     62.45135395
